<svg width="36" height="36" viewBox="0 0 36 36" fill="none" xmlns="http://www.w3.org/2000/svg">
<g clip-path="url(#clip0_275_64)">
<rect width="36" height="36" rx="18" fill="#191919"/>
<path d="M31.9563 5.0422C32.5567 3.35457 34.9433 3.35457 35.5437 5.0422L36.3514 7.31272C36.7519 8.43856 38.0785 8.9214 39.109 8.3164L41.1872 7.09626C42.7318 6.18935 44.5601 7.72348 43.9352 9.40217L43.0945 11.6607C42.6776 12.7806 43.3835 14.0032 44.5618 14.2021L46.9381 14.6032C48.7043 14.9014 49.1188 17.2518 47.561 18.1361L45.4652 19.3258C44.4261 19.9157 44.1809 21.306 44.9557 22.2158L46.5181 24.0505C47.6795 25.4143 46.4862 27.4812 44.7245 27.1573L42.3543 26.7215C41.179 26.5054 40.0976 27.4129 40.1063 28.6078L40.1239 31.0176C40.1369 32.8088 37.8942 33.6251 36.7528 32.2446L35.2173 30.3873C34.4559 29.4663 33.0441 29.4663 32.2827 30.3873L30.7472 32.2446C29.6058 33.6251 27.3631 32.8088 27.3761 31.0176L27.3937 28.6078C27.4024 27.4129 26.321 26.5054 25.1457 26.7215L22.7755 27.1573C21.0138 27.4812 19.8205 25.4143 20.9819 24.0505L22.5443 22.2158C23.3191 21.306 23.0739 19.9157 22.0348 19.3258L19.939 18.1361C18.3812 17.2518 18.7957 14.9014 20.5619 14.6032L22.9382 14.2021C24.1165 14.0032 24.8224 12.7806 24.4055 11.6607L23.5648 9.40217C22.9399 7.72348 24.7682 6.18935 26.3128 7.09626L28.391 8.3164C29.4215 8.9214 30.7481 8.43856 31.1486 7.31272L31.9563 5.0422Z" fill="#B4F1CF"/>
</g>
<rect x="0.18" y="0.18" width="35.64" height="35.64" rx="17.82" stroke="#D4D4D4" stroke-width="0.36"/>
<defs>
<clipPath id="clip0_275_64">
<rect width="36" height="36" rx="18" fill="white"/>
</clipPath>
</defs>
</svg>
