<svg width="20" height="20" viewBox="0 0 20 20" fill="none" xmlns="http://www.w3.org/2000/svg">
<path d="M5.68181 12.1299C5.68181 10.3749 6.99806 9.19025 9.36731 9.01475L12.4605 8.77344V8.48825C12.4605 7.01844 11.6708 6.27256 10.1351 6.27256C8.55563 6.27256 7.65619 6.95262 7.65619 8.13725H5.98894C5.98894 6.09706 7.65619 4.75887 10.2009 4.75887C12.8115 4.75887 14.3252 6.18481 14.3252 8.68569V12.5028C14.3252 13.3584 14.742 13.7752 15.5756 13.7752C16.9138 13.7752 17.8352 12.1079 17.8352 9.65094C17.8352 5.30731 14.6543 2.21412 10.179 2.21412C5.7915 2.21412 2.43506 5.61444 2.43506 10.0458C2.43506 14.543 5.76956 17.9433 10.179 17.9433C11.9121 17.9433 13.5793 17.3729 14.9614 16.3199L15.6634 17.5046C14.1058 18.6892 12.2192 19.3034 10.179 19.3034C4.93594 19.3034 0.96525 15.3327 0.96525 10.0458C0.96525 4.82469 4.95788 0.853997 10.179 0.853997C15.4879 0.853997 19.305 4.5395 19.305 9.65094C19.305 12.8757 17.7036 15.0914 15.3563 15.0914C13.8426 15.0914 12.8993 14.4114 12.6799 13.1609C12.1534 14.3456 10.7713 15.0914 9.126 15.0914C6.99806 15.0914 5.68181 13.9507 5.68181 12.1299ZM7.59038 12.0641C7.59038 13.0732 8.29238 13.5997 9.58669 13.5997C11.3856 13.5997 12.4824 12.4809 12.4824 10.6162V10.1116L9.95963 10.331C8.33625 10.4626 7.59038 11.033 7.59038 12.0641Z" fill="#F9E8CD"/>
</svg>
