<svg width="36" height="37" viewBox="0 0 36 37" fill="none" xmlns="http://www.w3.org/2000/svg">
<rect x="0.17683" y="1.13069" width="34.9639" height="34.9639" rx="17.482" fill="#191919"/>
<rect x="0.17683" y="1.13069" width="34.9639" height="34.9639" rx="17.482" stroke="#D4D4D4" stroke-width="0.353171"/>
<path d="M24.4279 7.91262C24.1107 7.59565 23.7289 7.35085 23.3084 7.19494C22.888 7.03903 22.4388 6.97568 21.9917 7.00922C21.5445 7.04276 21.1098 7.17239 20.7174 7.38927C20.3249 7.60615 19.9838 7.90517 19.7174 8.26591C18.9249 8.12473 18.1081 8.24006 17.3856 8.59513C16.6632 8.9502 16.0728 9.52649 15.7005 10.2402C15.3282 10.9539 15.1932 11.7677 15.3153 12.5634C15.4374 13.3591 15.8101 14.0951 16.3793 14.6643L17.9651 16.2533L16.2882 17.9302L18.433 20.0751L20.1115 18.3981L21.699 19.9856C22.2682 20.5548 23.0042 20.9275 23.7999 21.0496C24.5955 21.1716 25.4094 21.0367 26.1231 20.6644C26.8368 20.292 27.4131 19.7017 27.7682 18.9792C28.1232 18.2568 28.2386 17.4399 28.0974 16.6474C28.4581 16.3811 28.7571 16.04 28.974 15.6475C29.1909 15.255 29.3205 14.8203 29.3541 14.3732C29.3876 13.926 29.3243 13.4769 29.1683 13.0564C29.0124 12.636 28.7676 12.2541 28.4507 11.9369L27.5117 10.9964L28.3345 10.1736C28.6124 9.8879 28.7667 9.5042 28.764 9.10557C28.7612 8.70693 28.6016 8.32541 28.3198 8.04352C28.0379 7.76164 27.6563 7.60206 27.2577 7.59931C26.8591 7.59655 26.4754 7.75085 26.1896 8.02881L25.3669 8.85158L24.4279 7.91262ZM24.8519 13.4804C24.9993 13.6276 25.0822 13.8274 25.0823 14.0357C25.0825 14.244 24.9998 14.4439 24.8526 14.5913C24.7054 14.7387 24.5057 14.8216 24.2974 14.8218C24.089 14.8219 23.8892 14.7393 23.7418 14.5921L21.7445 12.5933C21.6015 12.4452 21.5224 12.2469 21.5242 12.041C21.5259 11.8352 21.6085 11.6383 21.7541 11.4927C21.8996 11.3472 22.0965 11.2646 22.3024 11.2628C22.5082 11.261 22.7065 11.3402 22.8546 11.4832L24.8519 13.4804ZM8.23958 17.4529C8.94921 16.7434 9.91162 16.3448 10.9151 16.3448C11.9186 16.3448 12.881 16.7434 13.5907 17.4529L18.9104 22.7742C19.4796 23.3434 19.8523 24.0794 19.9744 24.8751C20.0964 25.6707 19.9615 26.4846 19.5892 27.1983C19.2168 27.912 18.6265 28.4883 17.904 28.8433C17.1816 29.1984 16.3647 29.3137 15.5722 29.1726C15.3059 29.5333 14.9648 29.8323 14.5723 30.0492C14.1798 30.2661 13.7452 30.3957 13.298 30.4293C12.8508 30.4628 12.4017 30.3994 11.9812 30.2435C11.5608 30.0876 11.1789 29.8428 10.8617 29.5259L9.92122 28.5869L9.07176 29.4364C8.93266 29.5843 8.76526 29.7028 8.5795 29.7848C8.39375 29.8668 8.19341 29.9107 7.99037 29.9139C7.78733 29.9171 7.58573 29.8794 7.39751 29.8032C7.20929 29.727 7.03829 29.6138 6.89465 29.4702C6.75101 29.3267 6.63766 29.1558 6.56131 28.9676C6.48496 28.7794 6.44717 28.5779 6.45017 28.3748C6.45318 28.1718 6.49693 27.9714 6.57883 27.7856C6.66072 27.5998 6.77909 27.4323 6.92692 27.2931L7.77638 26.4421L6.83743 25.5031C6.52045 25.1859 6.27565 24.8041 6.11974 24.3836C5.96383 23.9632 5.90048 23.514 5.93402 23.0669C5.96756 22.6197 6.09719 22.185 6.31407 21.7925C6.53095 21.4001 6.82997 21.059 7.19071 20.7926C7.08252 20.1925 7.12158 19.5751 7.30454 18.9934C7.4875 18.4117 7.80733 17.883 8.23958 17.4529ZM12.8637 26.5818C13.0109 26.4346 13.0936 26.2349 13.0936 26.0268C13.0936 25.8186 13.0109 25.6189 12.8637 25.4717L10.8649 23.4745C10.7168 23.3315 10.5185 23.2523 10.3127 23.2541C10.1068 23.2559 9.9099 23.3385 9.76434 23.484C9.61878 23.6296 9.53622 23.8265 9.53443 24.0323C9.53264 24.2382 9.61177 24.4365 9.75478 24.5846L11.752 26.5818C11.8249 26.6549 11.9116 26.7129 12.007 26.7525C12.1023 26.7921 12.2046 26.8125 12.3079 26.8125C12.4111 26.8125 12.5134 26.7921 12.6088 26.7525C12.7041 26.7129 12.7908 26.6549 12.8637 26.5818Z" fill="#F9E8CD"/>
</svg>
