<svg width="24" height="24" viewBox="0 0 24 24" fill="none" xmlns="http://www.w3.org/2000/svg">
<g clip-path="url(#clip0_273_3626)">
<rect width="24" height="24" rx="12" fill="#191919"/>
<path d="M21.3042 3.36147C21.7044 2.23638 23.2956 2.23638 23.6958 3.36147L24.2343 4.87515C24.5013 5.62571 25.3857 5.9476 26.0726 5.54426L27.4581 4.73084C28.4879 4.12624 29.7068 5.14899 29.2902 6.26812L28.7297 7.77378C28.4518 8.52037 28.9223 9.33544 29.7079 9.46805L31.2921 9.73549C32.4695 9.93427 32.7458 11.5012 31.7073 12.0907L30.3102 12.8839C29.6174 13.2771 29.4539 14.204 29.9704 14.8105L31.0121 16.0337C31.7863 16.9428 30.9908 18.3208 29.8163 18.1049L28.2362 17.8143C27.4527 17.6703 26.7317 18.2752 26.7375 19.0719L26.7492 20.6784C26.7579 21.8726 25.2628 22.4167 24.5019 21.4964L23.4782 20.2582C22.9706 19.6442 22.0294 19.6442 21.5218 20.2582L20.4981 21.4964C19.7372 22.4167 18.2421 21.8726 18.2508 20.6784L18.2625 19.0719C18.2683 18.2752 17.5473 17.6703 16.7638 17.8143L15.1837 18.1049C14.0092 18.3208 13.2137 16.9428 13.9879 16.0337L15.0296 14.8105C15.5461 14.204 15.3826 13.2771 14.6898 12.8839L13.2927 12.0907C12.2542 11.5012 12.5305 9.93427 13.7079 9.73549L15.2921 9.46805C16.0777 9.33544 16.5482 8.52037 16.2703 7.77378L15.7098 6.26812C15.2932 5.14899 16.5121 4.12624 17.5419 4.73084L18.9274 5.54426C19.6143 5.9476 20.4987 5.62571 20.7657 4.87515L21.3042 3.36147Z" fill="#F9E8CD"/>
</g>
<rect x="0.12" y="0.12" width="23.76" height="23.76" rx="11.88" stroke="#D4D4D4" stroke-width="0.24"/>
<defs>
<clipPath id="clip0_273_3626">
<rect width="24" height="24" rx="12" fill="white"/>
</clipPath>
</defs>
</svg>
