<svg width="36" height="37" viewBox="0 0 36 37" fill="none" xmlns="http://www.w3.org/2000/svg">
<rect x="0.176585" y="1.13069" width="34.9639" height="34.9639" rx="17.482" fill="#191919"/>
<rect x="0.176585" y="1.13069" width="34.9639" height="34.9639" rx="17.482" stroke="#D4D4D4" stroke-width="0.353171"/>
<path d="M31.2903 17.8864C31.2883 16.2238 30.5799 14.6298 29.3206 13.4541C28.0612 12.2785 26.3537 11.6172 24.5727 11.6153C24.3016 11.6158 24.0308 11.6313 23.7617 11.6618C23.2391 10.5429 22.3781 9.59069 21.2843 8.92194C20.1905 8.25319 18.9114 7.89697 17.6039 7.89697C16.2964 7.89697 15.0173 8.25319 13.9235 8.92194C12.8297 9.59069 11.9687 10.5429 11.4462 11.6618C11.1787 11.6315 10.9095 11.616 10.6401 11.6153C9.10219 11.6163 7.61123 12.1097 6.41621 13.0134C5.22118 13.917 4.39445 15.176 4.07412 16.5802C3.75378 17.9843 3.95923 19.4486 4.65615 20.7283C5.35307 22.0081 6.49926 23.0259 7.90327 23.6117V29.035C7.90327 29.4662 8.08676 29.8798 8.41337 30.1847C8.73998 30.4896 9.18296 30.6609 9.64486 30.6609H25.5679C26.0298 30.6609 26.4728 30.4896 26.7994 30.1847C27.126 29.8798 27.3095 29.4662 27.3095 29.035V23.6117C28.4938 23.1174 29.4997 22.3139 30.206 21.2981C30.9123 20.2823 31.2888 19.0975 31.2903 17.8864ZM25.8167 29.035C25.8167 29.0966 25.7905 29.1557 25.7439 29.1993C25.6972 29.2428 25.6339 29.2673 25.5679 29.2673H9.64486C9.57887 29.2673 9.51559 29.2428 9.46893 29.1993C9.42227 29.1557 9.39606 29.0966 9.39606 29.035V24.0484C9.80619 24.1207 10.2227 24.1573 10.6401 24.1575H24.5727C24.9901 24.1573 25.4066 24.1207 25.8167 24.0484V29.035ZM24.5727 22.7639H22.5438L23.3064 19.9141C23.3302 19.8253 23.3351 19.7331 23.3208 19.6425C23.3064 19.552 23.2731 19.465 23.2227 19.3865C23.1724 19.308 23.1059 19.2395 23.0272 19.185C22.9485 19.1304 22.8591 19.0909 22.764 19.0686C22.6689 19.0464 22.5701 19.0418 22.4731 19.0552C22.3761 19.0686 22.2829 19.0997 22.1988 19.1467C22.1147 19.1937 22.0414 19.2558 21.983 19.3292C21.9245 19.4027 21.8822 19.4862 21.8584 19.575L21.0037 22.7639H18.3528V19.7445C18.3528 19.5597 18.2742 19.3825 18.1342 19.2518C17.9942 19.1212 17.8044 19.0477 17.6064 19.0477C17.4084 19.0477 17.2186 19.1212 17.0786 19.2518C16.9386 19.3825 16.86 19.5597 16.86 19.7445V22.7639H14.2091L13.3544 19.575C13.3306 19.4862 13.2882 19.4027 13.2298 19.3292C13.1714 19.2558 13.0981 19.1937 13.014 19.1467C12.9299 19.0997 12.8367 19.0686 12.7397 19.0552C12.6427 19.0418 12.5439 19.0464 12.4488 19.0686C12.3537 19.0909 12.2643 19.1304 12.1856 19.185C12.1069 19.2395 12.0404 19.308 11.9901 19.3865C11.9397 19.465 11.9064 19.552 11.892 19.6425C11.8777 19.7331 11.8826 19.8253 11.9064 19.9141L12.669 22.7639H10.6401C9.25436 22.7639 7.92542 22.2501 6.94559 21.3354C5.96576 20.4206 5.41529 19.18 5.41529 17.8864C5.41529 16.5928 5.96576 15.3522 6.94559 14.4375C7.92542 13.5228 9.25436 13.0089 10.6401 13.0089C10.7645 13.0089 10.8888 13.0089 11.0033 13.0217C10.9278 13.4005 10.8895 13.7849 10.8888 14.1702C10.8888 14.355 10.9675 14.5323 11.1075 14.6629C11.2474 14.7936 11.4373 14.867 11.6352 14.867C11.8332 14.867 12.023 14.7936 12.163 14.6629C12.303 14.5323 12.3816 14.355 12.3816 14.1702C12.3816 12.8766 12.9321 11.636 13.9119 10.7213C14.8918 9.8066 16.2207 9.29273 17.6064 9.29273C18.9921 9.29273 20.321 9.8066 21.3009 10.7213C22.2807 11.636 22.8312 12.8766 22.8312 14.1702C22.8312 14.355 22.9098 14.5323 23.0498 14.6629C23.1897 14.7936 23.3796 14.867 23.5776 14.867C23.7755 14.867 23.9654 14.7936 24.1053 14.6629C24.2453 14.5323 24.3239 14.355 24.3239 14.1702C24.3233 13.7849 24.2849 13.4005 24.2095 13.0217C24.3339 13.0147 24.4508 13.0089 24.5727 13.0089C25.9584 13.0089 27.2874 13.5228 28.2672 14.4375C29.247 15.3522 29.7975 16.5928 29.7975 17.8864C29.7975 19.18 29.247 20.4206 28.2672 21.3354C27.2874 22.2501 25.9584 22.7639 24.5727 22.7639Z" fill="#F9E8CD"/>
<path d="M24.5727 22.7639H22.5438L23.3064 19.9141C23.3302 19.8253 23.3351 19.7331 23.3208 19.6425C23.3064 19.552 23.2731 19.465 23.2227 19.3865C23.1724 19.308 23.1059 19.2395 23.0272 19.185C22.9485 19.1304 22.8591 19.0909 22.764 19.0686C22.6689 19.0464 22.5701 19.0418 22.4731 19.0552C22.3761 19.0686 22.2829 19.0997 22.1988 19.1467C22.1147 19.1937 22.0414 19.2558 21.983 19.3292C21.9245 19.4027 21.8822 19.4862 21.8584 19.575L21.0037 22.7639H18.3528V19.7445C18.3528 19.5597 18.2742 19.3825 18.1342 19.2518C17.9942 19.1212 17.8044 19.0477 17.6064 19.0477C17.4084 19.0477 17.2186 19.1212 17.0786 19.2518C16.9386 19.3825 16.86 19.5597 16.86 19.7445V22.7639H14.2091L13.3544 19.575C13.3306 19.4862 13.2882 19.4027 13.2298 19.3292C13.1714 19.2558 13.0981 19.1937 13.014 19.1467C12.9299 19.0997 12.8367 19.0686 12.7397 19.0552C12.6427 19.0418 12.5439 19.0464 12.4488 19.0686C12.3537 19.0909 12.2643 19.1304 12.1856 19.185C12.1069 19.2395 12.0404 19.308 11.9901 19.3865C11.9397 19.465 11.9064 19.552 11.892 19.6425C11.8777 19.7331 11.8826 19.8253 11.9064 19.9141L12.669 22.7639H10.6401C9.25436 22.7639 7.92542 22.2501 6.94559 21.3354C5.96576 20.4206 5.41529 19.18 5.41529 17.8864C5.41529 16.5928 5.96576 15.3522 6.94559 14.4375C7.92542 13.5228 9.25436 13.0089 10.6401 13.0089C10.7645 13.0089 10.8888 13.0089 11.0033 13.0217C10.9278 13.4005 10.8895 13.7849 10.8888 14.1702C10.8888 14.355 10.9675 14.5323 11.1075 14.6629C11.2474 14.7936 11.4373 14.867 11.6352 14.867C11.8332 14.867 12.023 14.7936 12.163 14.6629C12.303 14.5323 12.3816 14.355 12.3816 14.1702C12.3816 12.8766 12.9321 11.636 13.9119 10.7213C14.8918 9.8066 16.2207 9.29273 17.6064 9.29273C18.9921 9.29273 20.321 9.8066 21.3009 10.7213C22.2807 11.636 22.8312 12.8766 22.8312 14.1702C22.8312 14.355 22.9098 14.5323 23.0498 14.6629C23.1897 14.7936 23.3796 14.867 23.5776 14.867C23.7755 14.867 23.9654 14.7936 24.1053 14.6629C24.2453 14.5323 24.3239 14.355 24.3239 14.1702C24.3233 13.7849 24.2849 13.4005 24.2095 13.0217C24.3339 13.0147 24.4508 13.0089 24.5727 13.0089C25.9584 13.0089 27.2874 13.5228 28.2672 14.4375C29.247 15.3522 29.7975 16.5928 29.7975 17.8864C29.7975 19.18 29.247 20.4206 28.2672 21.3354C27.2874 22.2501 25.9584 22.7639 24.5727 22.7639Z" fill="white"/>
<path d="M25.8167 29.035C25.8167 29.0966 25.7905 29.1557 25.7439 29.1993C25.6972 29.2428 25.6339 29.2673 25.5679 29.2673H9.64486C9.57887 29.2673 9.51559 29.2428 9.46893 29.1993C9.42227 29.1557 9.39606 29.0966 9.39606 29.035V24.0484C9.80619 24.1207 10.2227 24.1573 10.6401 24.1575H24.5727C24.9901 24.1573 25.4066 24.1207 25.8167 24.0484V29.035Z" fill="#F9E8CD"/>
<path d="M31.2903 17.8864C31.2883 16.2238 30.5799 14.6298 29.3206 13.4541C28.0612 12.2785 26.3537 11.6172 24.5727 11.6153C24.3016 11.6158 24.0308 11.6313 23.7617 11.6618C23.2391 10.5429 22.3781 9.59069 21.2843 8.92194C20.1905 8.25319 18.9114 7.89697 17.6039 7.89697C16.2964 7.89697 15.0173 8.25319 13.9235 8.92194C12.8297 9.59069 11.9687 10.5429 11.4462 11.6618C11.1787 11.6315 10.9095 11.616 10.6401 11.6153C9.10219 11.6163 7.61123 12.1097 6.41621 13.0134C5.22118 13.917 4.39445 15.176 4.07412 16.5802C3.75378 17.9843 3.95923 19.4486 4.65615 20.7283C5.35307 22.0081 6.49926 23.0259 7.90327 23.6117V29.035C7.90327 29.4662 8.08676 29.8798 8.41337 30.1847C8.73998 30.4896 9.18296 30.6609 9.64486 30.6609H25.5679C26.0298 30.6609 26.4728 30.4896 26.7994 30.1847C27.126 29.8798 27.3095 29.4662 27.3095 29.035V23.6117C28.4938 23.1174 29.4997 22.3139 30.206 21.2981C30.9123 20.2823 31.2888 19.0975 31.2903 17.8864ZM25.8167 29.035C25.8167 29.0966 25.7905 29.1557 25.7439 29.1993C25.6972 29.2428 25.6339 29.2673 25.5679 29.2673H9.64486C9.57887 29.2673 9.51559 29.2428 9.46893 29.1993C9.42227 29.1557 9.39606 29.0966 9.39606 29.035V24.0484C9.80619 24.1207 10.2227 24.1573 10.6401 24.1575H24.5727C24.9901 24.1573 25.4066 24.1207 25.8167 24.0484V29.035ZM24.5727 22.7639H22.5438L23.3064 19.9141C23.3302 19.8253 23.3351 19.7331 23.3208 19.6425C23.3064 19.552 23.2731 19.465 23.2227 19.3865C23.1724 19.308 23.1059 19.2395 23.0272 19.185C22.9485 19.1304 22.8591 19.0909 22.764 19.0686C22.6689 19.0464 22.5701 19.0418 22.4731 19.0552C22.3761 19.0686 22.2829 19.0997 22.1988 19.1467C22.1147 19.1937 22.0414 19.2558 21.983 19.3292C21.9245 19.4027 21.8822 19.4862 21.8584 19.575L21.0037 22.7639H18.3528V19.7445C18.3528 19.5597 18.2742 19.3825 18.1342 19.2518C17.9942 19.1212 17.8044 19.0477 17.6064 19.0477C17.4084 19.0477 17.2186 19.1212 17.0786 19.2518C16.9386 19.3825 16.86 19.5597 16.86 19.7445V22.7639H14.2091L13.3544 19.575C13.3306 19.4862 13.2882 19.4027 13.2298 19.3292C13.1714 19.2558 13.0981 19.1937 13.014 19.1467C12.9299 19.0997 12.8367 19.0686 12.7397 19.0552C12.6427 19.0418 12.5439 19.0464 12.4488 19.0686C12.3537 19.0909 12.2643 19.1304 12.1856 19.185C12.1069 19.2395 12.0404 19.308 11.9901 19.3865C11.9397 19.465 11.9064 19.552 11.892 19.6425C11.8777 19.7331 11.8826 19.8253 11.9064 19.9141L12.669 22.7639H10.6401C9.25436 22.7639 7.92542 22.2501 6.94559 21.3354C5.96576 20.4206 5.41529 19.18 5.41529 17.8864C5.41529 16.5928 5.96576 15.3522 6.94559 14.4375C7.92542 13.5228 9.25436 13.0089 10.6401 13.0089C10.7645 13.0089 10.8888 13.0089 11.0033 13.0217C10.9278 13.4005 10.8895 13.7849 10.8888 14.1702C10.8888 14.355 10.9675 14.5323 11.1075 14.6629C11.2474 14.7936 11.4373 14.867 11.6352 14.867C11.8332 14.867 12.023 14.7936 12.163 14.6629C12.303 14.5323 12.3816 14.355 12.3816 14.1702C12.3816 12.8766 12.9321 11.636 13.9119 10.7213C14.8918 9.8066 16.2207 9.29273 17.6064 9.29273C18.9921 9.29273 20.321 9.8066 21.3009 10.7213C22.2807 11.636 22.8312 12.8766 22.8312 14.1702C22.8312 14.355 22.9098 14.5323 23.0498 14.6629C23.1897 14.7936 23.3796 14.867 23.5776 14.867C23.7755 14.867 23.9654 14.7936 24.1053 14.6629C24.2453 14.5323 24.3239 14.355 24.3239 14.1702C24.3233 13.7849 24.2849 13.4005 24.2095 13.0217C24.3339 13.0147 24.4508 13.0089 24.5727 13.0089C25.9584 13.0089 27.2874 13.5228 28.2672 14.4375C29.247 15.3522 29.7975 16.5928 29.7975 17.8864C29.7975 19.18 29.247 20.4206 28.2672 21.3354C27.2874 22.2501 25.9584 22.7639 24.5727 22.7639Z" stroke="#F9E8CD" stroke-width="0.933538"/>
<path d="M24.5727 22.7639H22.5438L23.3064 19.9141C23.3302 19.8253 23.3351 19.7331 23.3208 19.6425C23.3064 19.552 23.2731 19.465 23.2227 19.3865C23.1724 19.308 23.1059 19.2395 23.0272 19.185C22.9485 19.1304 22.8591 19.0909 22.764 19.0686C22.6689 19.0464 22.5701 19.0418 22.4731 19.0552C22.3761 19.0686 22.2829 19.0997 22.1988 19.1467C22.1147 19.1937 22.0414 19.2558 21.983 19.3292C21.9245 19.4027 21.8822 19.4862 21.8584 19.575L21.0037 22.7639H18.3528V19.7445C18.3528 19.5597 18.2742 19.3825 18.1342 19.2518C17.9942 19.1212 17.8044 19.0477 17.6064 19.0477C17.4084 19.0477 17.2186 19.1212 17.0786 19.2518C16.9386 19.3825 16.86 19.5597 16.86 19.7445V22.7639H14.2091L13.3544 19.575C13.3306 19.4862 13.2882 19.4027 13.2298 19.3292C13.1714 19.2558 13.0981 19.1937 13.014 19.1467C12.9299 19.0997 12.8367 19.0686 12.7397 19.0552C12.6427 19.0418 12.5439 19.0464 12.4488 19.0686C12.3537 19.0909 12.2643 19.1304 12.1856 19.185C12.1069 19.2395 12.0404 19.308 11.9901 19.3865C11.9397 19.465 11.9064 19.552 11.892 19.6425C11.8777 19.7331 11.8826 19.8253 11.9064 19.9141L12.669 22.7639H10.6401C9.25436 22.7639 7.92542 22.2501 6.94559 21.3354C5.96576 20.4206 5.41529 19.18 5.41529 17.8864C5.41529 16.5928 5.96576 15.3522 6.94559 14.4375C7.92542 13.5228 9.25436 13.0089 10.6401 13.0089C10.7645 13.0089 10.8888 13.0089 11.0033 13.0217C10.9278 13.4005 10.8895 13.7849 10.8888 14.1702C10.8888 14.355 10.9675 14.5323 11.1075 14.6629C11.2474 14.7936 11.4373 14.867 11.6352 14.867C11.8332 14.867 12.023 14.7936 12.163 14.6629C12.303 14.5323 12.3816 14.355 12.3816 14.1702C12.3816 12.8766 12.9321 11.636 13.9119 10.7213C14.8918 9.8066 16.2207 9.29273 17.6064 9.29273C18.9921 9.29273 20.321 9.8066 21.3009 10.7213C22.2807 11.636 22.8312 12.8766 22.8312 14.1702C22.8312 14.355 22.9098 14.5323 23.0498 14.6629C23.1897 14.7936 23.3796 14.867 23.5776 14.867C23.7755 14.867 23.9654 14.7936 24.1053 14.6629C24.2453 14.5323 24.3239 14.355 24.3239 14.1702C24.3233 13.7849 24.2849 13.4005 24.2095 13.0217C24.3339 13.0147 24.4508 13.0089 24.5727 13.0089C25.9584 13.0089 27.2874 13.5228 28.2672 14.4375C29.247 15.3522 29.7975 16.5928 29.7975 17.8864C29.7975 19.18 29.247 20.4206 28.2672 21.3354C27.2874 22.2501 25.9584 22.7639 24.5727 22.7639Z" stroke="#F9E8CD" stroke-width="0.933538"/>
<path d="M25.8167 29.035C25.8167 29.0966 25.7905 29.1557 25.7439 29.1993C25.6972 29.2428 25.6339 29.2673 25.5679 29.2673H9.64486C9.57887 29.2673 9.51559 29.2428 9.46893 29.1993C9.42227 29.1557 9.39606 29.0966 9.39606 29.035V24.0484C9.80619 24.1207 10.2227 24.1573 10.6401 24.1575H24.5727C24.9901 24.1573 25.4066 24.1207 25.8167 24.0484V29.035Z" stroke="#F9E8CD" stroke-width="0.933538"/>
</svg>
