<svg width="31" height="29" viewBox="0 0 31 29" fill="none" xmlns="http://www.w3.org/2000/svg">
<path d="M16.8699 12.7502L30.2643 7.91382" stroke="#F9E8CD" stroke-width="1.08084" stroke-linecap="round"/>
<path d="M26.8341 11.5103C27.7295 11.5103 28.4654 12.2388 28.3582 13.1277C27.9981 16.115 26.6477 18.9142 24.4982 21.0636C21.9645 23.5973 18.528 25.0208 14.9448 25.0208C11.3616 25.0208 7.92517 23.5973 5.39146 21.0636C3.242 18.9142 1.8916 16.115 1.53144 13.1277C1.42427 12.2388 2.16019 11.5103 3.05559 11.5103L14.9448 11.5103H26.8341Z" fill="#F9E8CD"/>
<path d="M2.21183 10.9883L2.18791 11.0179C1.82765 11.4637 2.14497 12.1281 2.71816 12.1281H28.0352C27.8734 12.1281 27.7423 11.9969 27.7423 11.8352V11.708C27.7423 11.5769 27.6811 11.4533 27.5768 11.3738L26.9978 10.9328C26.9106 10.8664 26.8041 10.8304 26.6945 10.8304H26.6126C26.3813 10.8304 26.1938 10.6429 26.1938 10.4116V9.91309C26.1938 9.56357 25.964 9.25568 25.6288 9.15635L25.4959 9.11695C25.2396 9.04099 25.0639 8.80555 25.0639 8.53827C25.0639 8.30305 24.9272 8.08925 24.7137 7.99049L24.6014 7.93853C24.5472 7.91344 24.4959 7.88234 24.4487 7.84581L23.7801 7.32921C23.666 7.24098 23.5991 7.10484 23.5991 6.96056C23.5991 6.86501 23.5697 6.77177 23.5149 6.69347L23.1601 6.18634C23.068 6.05473 22.9175 5.97634 22.7569 5.97634C22.5791 5.97634 22.4152 5.88047 22.328 5.72555L22.1868 5.47449C22.125 5.36463 22.0925 5.24026 22.0925 5.1142C22.0925 4.94123 22.0312 4.77326 21.9194 4.64124C21.7429 4.43279 21.465 4.34009 21.1987 4.40088L20.8554 4.47927C20.7597 4.50111 20.6619 4.51214 20.5638 4.51214H20H19.1004C18.9501 4.51214 18.8282 4.39025 18.8282 4.23989C18.8282 4.08953 18.7063 3.96764 18.5559 3.96764H18.4542C18.3227 3.96764 18.2009 3.8986 18.1334 3.78581L18.1155 3.75604C18.0384 3.6272 17.8992 3.54834 17.7491 3.54834C17.6615 3.54834 17.576 3.52142 17.5042 3.47122L17.4053 3.40198C17.269 3.30671 17.1069 3.25562 16.9406 3.25562H16.0689C15.988 3.25562 15.9117 3.29334 15.8625 3.35765L15.7195 3.54489C15.6149 3.68169 15.3964 3.60777 15.3964 3.43561C15.3964 3.3362 15.3158 3.25562 15.2164 3.25562H13.6388C13.3614 3.25562 13.1365 3.48048 13.1365 3.75787V4.16202C13.1365 4.24908 13.0918 4.33002 13.018 4.37632C12.8989 4.45112 12.7416 4.41439 12.6679 4.29456L12.5862 4.16171C12.5121 4.04111 12.3807 3.96764 12.2391 3.96764H11.3033C11.0569 3.96764 10.8206 4.06558 10.6464 4.23989L10.4784 4.40804C10.4118 4.47469 10.3215 4.51214 10.2272 4.51214C10.0311 4.51214 9.87218 4.6711 9.87218 4.86719V4.93026C9.87218 5.13828 9.70355 5.30691 9.49553 5.30691H9.45359C9.26874 5.30691 9.11888 5.45677 9.11888 5.64163C9.11888 5.82649 8.96902 5.97634 8.78416 5.97634H7.45794C7.20431 5.97634 6.98322 6.14898 6.92174 6.39505C6.86025 6.64112 6.63916 6.81376 6.38553 6.81376H6.27765C5.99655 6.81376 5.74348 6.98408 5.63765 7.2445L5.33837 7.98091C5.29622 8.08463 5.19542 8.15247 5.08345 8.15247C4.93149 8.15247 4.80829 8.27567 4.80829 8.42763V8.81902C4.80829 9.11757 4.60976 9.37971 4.32238 9.46062L3.67894 9.64177C3.54492 9.6795 3.43219 9.77047 3.36699 9.8935L3.24103 10.1312C3.16256 10.2793 2.97121 10.3236 2.8356 10.2252C2.72031 10.1415 2.56024 10.1595 2.46637 10.2666L2.4248 10.3141C2.36975 10.377 2.3394 10.4577 2.3394 10.5412V10.6275C2.3394 10.7588 2.29437 10.8862 2.21183 10.9883Z" fill="white" stroke="white" stroke-width="0.402672" stroke-linecap="round"/>
<path d="M27.9149 11.5103C28.2134 11.5103 28.4565 11.7524 28.4445 12.0506C28.3091 15.4375 26.9043 18.6576 24.4982 21.0636C21.9645 23.5973 18.528 25.0208 14.9448 25.0208C11.3616 25.0208 7.92517 23.5973 5.39146 21.0636C2.98541 18.6576 1.58058 15.4375 1.44513 12.0506C1.4332 11.7524 1.67628 11.5103 1.97475 11.5103L14.9448 11.5103H27.9149Z" fill="#F9E8CD"/>
<path d="M10.9519 23.3434H19.0434V24.021V26.1252H10.9524V24.021L10.9519 23.3434Z" fill="#F9E8CD"/>
</svg>
