<svg width="30" height="30" viewBox="0 0 30 30" fill="none" xmlns="http://www.w3.org/2000/svg">
<path d="M14.2495 4.06085C14.664 3.64638 15.336 3.64638 15.7505 4.06085L18.7778 7.08822C19.1923 7.50269 19.1923 8.17468 18.7778 8.58916L15.7505 11.6165C15.336 12.031 14.664 12.031 14.2495 11.6165L11.2222 8.58916C10.8077 8.17468 10.8077 7.50269 11.2222 7.08822L14.2495 4.06085Z" stroke="#F9E8CD" stroke-width="2.5"/>
<path d="M21.4108 11.2222C21.8253 10.8077 22.4973 10.8077 22.9118 11.2222L25.9391 14.2495C26.3536 14.664 26.3536 15.336 25.9391 15.7505L22.9118 18.7778C22.4973 19.1923 21.8253 19.1923 21.4108 18.7778L18.3835 15.7505C17.969 15.336 17.969 14.664 18.3835 14.2495L21.4108 11.2222Z" stroke="#F9E8CD" stroke-width="2.5"/>
<path d="M7.08822 11.2222C7.50269 10.8077 8.17468 10.8077 8.58916 11.2222L11.6165 14.2495C12.031 14.664 12.031 15.336 11.6165 15.7505L8.58916 18.7778C8.17468 19.1923 7.50269 19.1923 7.08822 18.7778L4.06085 15.7505C3.64638 15.336 3.64638 14.664 4.06085 14.2495L7.08822 11.2222Z" stroke="#F9E8CD" stroke-width="2.5"/>
<path d="M14.2495 18.3835C14.664 17.969 15.336 17.969 15.7505 18.3835L18.7778 21.4108C19.1923 21.8253 19.1923 22.4973 18.7778 22.9118L15.7505 25.9391C15.336 26.3536 14.664 26.3536 14.2495 25.9391L11.2222 22.9118C10.8077 22.4973 10.8077 21.8253 11.2222 21.4108L14.2495 18.3835Z" stroke="#F9E8CD" stroke-width="2.5"/>
</svg>
