<svg width="24" height="24" viewBox="0 0 24 24" fill="none" xmlns="http://www.w3.org/2000/svg">
<g clip-path="url(#clip0_223_8920)">
<rect width="24" height="24" rx="12" fill="#191919"/>
<path d="M10.3377 2.36147C10.7379 1.23638 12.329 1.23638 12.7292 2.36147L13.2737 3.892C13.5407 4.64257 14.4251 4.96446 15.1121 4.56112L16.513 3.73864C17.5428 3.13403 18.7616 4.15679 18.345 5.27592L17.7783 6.79835C17.5004 7.54494 17.971 8.36 18.7565 8.49261L20.3583 8.76303C21.5358 8.96181 21.8121 10.5288 20.7736 11.1183L19.3609 11.9202C18.6681 12.3135 18.5047 13.2404 19.0212 13.8469L20.0744 15.0837C20.8487 15.9928 20.0531 17.3708 18.8786 17.1549L17.2809 16.8611C16.4974 16.7171 15.7764 17.322 15.7822 18.1186L15.7941 19.7431C15.8028 20.9372 14.3076 21.4814 13.5467 20.5611L12.5116 19.309C12.004 18.6951 11.0629 18.6951 10.5553 19.309L9.52017 20.5611C8.75927 21.4814 7.26411 20.9372 7.27282 19.7431L7.28466 18.1186C7.29047 17.322 6.5695 16.7171 5.786 16.8611L4.18828 17.1549C3.01381 17.3708 2.21826 15.9928 2.99249 15.0837L4.04574 13.8469C4.56225 13.2404 4.39882 12.3135 3.70602 11.9202L2.29328 11.1183C1.25479 10.5288 1.53108 8.96181 2.70858 8.76303L4.31041 8.49261C5.09593 8.36 5.56651 7.54494 5.28859 6.79835L4.72187 5.27592C4.30527 4.15679 5.52414 3.13404 6.55392 3.73864L7.95482 4.56112C8.6418 4.96446 9.5262 4.64257 9.7932 3.892L10.3377 2.36147Z" fill="#F9E8CD"/>
</g>
<rect x="0.12" y="0.12" width="23.76" height="23.76" rx="11.88" stroke="#D4D4D4" stroke-width="0.24"/>
<defs>
<clipPath id="clip0_223_8920">
<rect width="24" height="24" rx="12" fill="white"/>
</clipPath>
</defs>
</svg>
