<svg width="17" height="17" viewBox="0 0 17 17" fill="none" xmlns="http://www.w3.org/2000/svg">
<path d="M7.54591 1.1519C7.86525 0.254225 9.13475 0.254225 9.45409 1.1519L9.8885 2.37307C10.1015 2.97193 10.8072 3.22876 11.3553 2.90694L12.473 2.25071C13.2947 1.76831 14.2672 2.58433 13.9348 3.47726L13.4826 4.69197C13.2609 5.28765 13.6363 5.93797 14.2631 6.04377L15.5411 6.25953C16.4806 6.41814 16.7011 7.66836 15.8725 8.13872L14.7453 8.77859C14.1925 9.09237 14.0621 9.83189 14.4742 10.3158L15.3146 11.3026C15.9323 12.028 15.2976 13.1274 14.3605 12.9551L13.0857 12.7208C12.4606 12.6058 11.8854 13.0885 11.89 13.7241L11.8994 15.0202C11.9064 15.973 10.7134 16.4072 10.1063 15.6728L9.28047 14.6739C8.87546 14.184 8.12454 14.184 7.71953 14.6739L6.89365 15.6728C6.28655 16.4072 5.09361 15.973 5.10055 15.0202L5.11001 13.7241C5.11464 13.0885 4.5394 12.6058 3.91426 12.7208L2.63949 12.9551C1.70241 13.1274 1.06766 12.028 1.6854 11.3026L2.52576 10.3158C2.93787 9.83189 2.80747 9.09237 2.25471 8.77859L1.12752 8.13872C0.298937 7.66836 0.519385 6.41814 1.45887 6.25953L2.73693 6.04377C3.36368 5.93797 3.73914 5.28765 3.5174 4.69197L3.06522 3.47726C2.73283 2.58433 3.70533 1.76831 4.52697 2.25071L5.6447 2.90694C6.19283 3.22876 6.89847 2.97193 7.1115 2.37307L7.54591 1.1519Z" fill="#F9E8CD"/>
</svg>
