<svg width="45" height="45" viewBox="0 0 45 45" fill="none" xmlns="http://www.w3.org/2000/svg">
<g clip-path="url(#clip0_223_10062)">
<rect width="45" height="45" rx="22.5" fill="#191919"/>
<path d="M20.2579 -7.69725C21.0083 -9.80679 23.9917 -9.80678 24.7421 -7.69725L25.763 -4.82749C26.2636 -3.42019 27.9218 -2.81664 29.2099 -3.5729L31.8366 -5.11506C33.7675 -6.24868 36.0528 -4.33103 35.2717 -2.23266L34.2091 0.621905C33.688 2.02176 34.5704 3.55001 36.0432 3.79865L39.0466 4.30569C41.2544 4.6784 41.7725 7.61642 39.8253 8.72177L37.1764 10.2255C35.8774 10.9629 35.571 12.7007 36.5395 13.8379L38.5143 16.1569C39.966 17.8616 38.4743 20.4452 36.2722 20.0403L33.2765 19.4896C31.8074 19.2195 30.4556 20.3538 30.4665 21.8474L30.4887 24.8933C30.505 27.1323 27.7016 28.1526 26.2749 26.427L24.3341 24.0794C23.3823 22.9282 21.6177 22.9282 20.6659 24.0794L18.7251 26.427C17.2984 28.1526 14.495 27.1323 14.5113 24.8933L14.5335 21.8474C14.5444 20.3538 13.1926 19.2195 11.7235 19.4896L8.7278 20.0403C6.52567 20.4452 5.034 17.8616 6.48569 16.1569L8.46054 13.8379C9.42899 12.7007 9.12256 10.9629 7.82356 10.2255L5.17468 8.72177C3.2275 7.61642 3.74556 4.6784 5.95336 4.30569L8.95678 3.79865C10.4296 3.55001 11.312 2.02176 10.7909 0.621904L9.72827 -2.23266C8.94715 -4.33103 11.2325 -6.24868 13.1634 -5.11505L15.7901 -3.5729C17.0782 -2.81664 18.7364 -3.42019 19.237 -4.82749L20.2579 -7.69725Z" fill="#F9E8CD"/>
</g>
<rect x="0.225" y="0.225" width="44.55" height="44.55" rx="22.275" stroke="#D4D4D4" stroke-width="0.45"/>
<defs>
<clipPath id="clip0_223_10062">
<rect width="45" height="45" rx="22.5" fill="white"/>
</clipPath>
</defs>
</svg>
